<?xml version="1.0" encoding="utf-8"?>
<!-- Designed by Vexels.com - 2020 All Rights Reserved - https://vexels.com/terms-and-conditions/  -->
<svg version="1.1" id="Layer_1" xmlns="http://www.w3.org/2000/svg" xmlns:xlink="http://www.w3.org/1999/xlink" x="0px" y="0px"
	 viewBox="0 0 1200 1200" enable-background="new 0 0 1200 1200" xml:space="preserve">
<g>
	<path fill="#fdfdfd" d="M1005.057,866.122c-23.618,17.508-29.651,33.23-31.366,62.647c-0.318,5.449,2.664,14.586,6.703,18.872
		c4.258,4.518,10.357,7.399,11.813,13.859c1.928,8.554-7.904,13.378-14.83,16.026c-24.251,9.271-48.633,18.536-73.662,25.711
		c-146.704,42.055-293.644,83.405-440.414,125.264c-18.697,5.333-36.975,11.979-55.241,18.512
		c-14.144,5.058-26.494,4.647-35.366-8.762c-6.468-9.777-14.322-19.249-18.295-29.899
		c-61.463-164.761-125.246-328.937-166.816-499.289c-12.83-52.578-21.947-106.03-29.85-159.426
		c-2.417-16.328-5.561-106.118,36.563-166.809c10.823-24.256,29.577-32.917,50.908-40.903
		c113.359-42.438,226.83-84.631,340.648-125.993c60.198-21.876,123.725-49.454,197.524-65.769
		c25.802-5.704,63.474,140.158,80.823,195.359c60.484,192.446,118.227,385.624,176.923,578.546
		C1048.213,847.376,1040.349,855.079,1005.057,866.122z M229.737,275.106c39.049,123.343,77.761,245.019,116.07,366.802
		c38.458,122.258,73.588,235.257,112.321,359.175c28.419-11.198,357.401-110.117,492.488-152.785
		c16.655-5.261,34.25-7.969,52.36-12.076C927.115,588.31,850.535,338.057,773.482,86.254
		C588.883,150.369,408.584,212.99,229.737,275.106z M343.818,983.661c12.205-20.013,44.013-71.468,40.552-82.612
		c-47.8-153.896-95.232-307.89-142.814-461.843c-0.838-2.71-2.425-5.223-4.864-10.358c-4.263,10.929-35.728,71.204-35.728,71.204
		s4.44,32.044,16.954,72.941c23.917,78.167,43.456,157.467,67.075,235.717C302.591,867.012,323.75,924.403,343.818,983.661z
		 M437.937,1068.565c38.071-12.92,73.721-25.886,109.983-37.166c124.731-38.8,264.08-79.972,389.047-118.116
		c13.73-4.191,17.285-11.739,19.678-27.244c-3.881,0.633-15.121,5.035-17.977,5.854c-70.834,20.325-141.792,40.295-212.424,61.206
		c-82.189,24.332-272.908,82.687-272.908,82.687S444.585,1045.707,437.937,1068.565z M416.957,1115.189
		c21.178-6.594,47.437-15.711,68.8-21.751c128.487-36.332,257.13-72.198,385.526-108.803c24.777-7.064,48.688-16.714,73.924-25.493
		c3.104-7.951,1.101-15.875-1.475-21.558c-23.814,7.2-53.766,17.027-76.605,24.371c-141.97,45.646-284.392,89.929-429.541,126.423
		C429.542,1090.402,415.566,1114.085,416.957,1115.189z M401.321,953.49c-10.931,26.758-28.612,44.883-39.358,71.709
		c-0.808,2.016-0.401,4.847,0.366,7.019c5.611,15.873,12.629,42.31,19.323,60.661c15.67-24.416,39.003-70.594,37.977-74.489
		C412.53,991.417,402.755,953.745,401.321,953.49z M210.967,319.864c-1.736-0.045-3.412-0.415-3.615-0.047
		c-18.082,32.801-26.312,111.398-14.516,135.041c10.878-19.113,22.028-38.396,32.76-57.888c1.603-2.911,2.355-7.014,1.621-10.206
		C222.063,364.355,216.416,342.041,210.967,319.864z"/>
	<path fill="#fdfdfd" d="M437.838,576.185c-0.855,0.213-0.212,27.585-0.657,30.424c-1.236,7.872-5.915,21.781-16.187,22.615
		c-3.168,0.257-6.294-1.163-8.748-3.113c-10.402-8.264-9.467-23.96-10.328-35.467c-1.114-14.9-1.398-29.836-1.145-44.749
		c0.45-26.576,2.548-53.139,5.131-79.587c0.542-5.545,1.625-12.751,9.913-15.021c5.925-1.6,16.61,0.43,20.215,4.674
		c27.923,32.88,55.527,66.022,81.413,100.353c8.533,11.317,12.652,24.923,12.345,38.775c-0.074,3.358-0.43,6.773-1.846,9.836
		c-1.416,3.063-4.034,5.755-7.443,6.677c-6.398,1.731-13.946-2.438-18.709-6.237c-5.553-4.429-9.492-10.346-13.424-16.029
		c-4.845-7.001-9.577-14.074-14.219-21.195C474.148,568.14,474.901,567.099,437.838,576.185z M463.449,542.228
		c-13.787-20.496-25.073-41.323-37.214-59.372c2.753,21.657,5.024,46.352,7.961,69.46
		C444.515,548.757,452.697,545.935,463.449,542.228z"/>
	<path fill="#fdfdfd" d="M740.004,410.578c-17.441,2.915-32.878,6.402-48.55,7.63c-0.7,0.055-1.408,0.024-2.124-0.076
		c-9.191-1.29-12.242-13.202-5.044-18.615c0.799-0.601,1.639-1.126,2.534-1.552c15.312-7.285,31.068-14.03,47.284-19.319
		c22.564-7.359,32.79-0.982,33.097,22.611c0.345,26.518-2.497,53.028-3.94,79.542c-0.192,3.522-0.303,7.05-0.534,12.519
		c5.875-1.607,10.382-2.912,14.934-4.071c12.919-3.29,25.76-8.701,38.82-9.029c4.912-0.123,9.912,1.767,14.933,4.105
		c7.045,3.281,9.871,11.378,6.076,17.766c-2.538,4.272-6.684,12.957-20.159,17.679c-17.924,6.281-36.004,12.223-54.267,17.579
		c-29.117,8.54-45.794-3.215-42.73-32.058c2.411-22.694,8.684-44.975,13.371-67.414
		C735.529,429.141,737.707,420.478,740.004,410.578z"/>
	<path fill="#fdfdfd" d="M674.521,492.446c0.464,3.686-1.207,7.316-4.209,9.661c-3.938,3.075-8.614,6.711-13.85,7.585
		c-21.974,3.666-44.355,5.468-66.655,7.25c-0.067,0.005-0.135,0.01-0.204,0.015c-7.504,0.537-13.361-7.264-9.607-13.376
		c0.471-0.767,1.031-1.35,1.731-1.643c23.572-9.863,46.983-20.678,71.674-27.319C663.016,472.033,672.738,478.276,674.521,492.446z"
		/>
</g>
</svg>
